<?xml version="1.0" encoding="UTF-8"?>
<svg version="1.1" viewBox="0 0 678.85 304.94" xmlns="http://www.w3.org/2000/svg" xmlns:xlink="http://www.w3.org/1999/xlink">
 <defs>
  <linearGradient id="s">
   <stop stop-color="#e6e6e6" stop-opacity=".39007" offset="0"/>
   <stop stop-color="#dcdcdc" stop-opacity=".38298" offset="1"/>
  </linearGradient>
  <linearGradient id="k">
   <stop stop-color="#b3b3b3" offset="0"/>
   <stop stop-color="#e4e4e4" offset="1"/>
  </linearGradient>
  <filter id="ab" color-interpolation-filters="sRGB">
   <feGaussianBlur stdDeviation="0.10660714"/>
  </filter>
  <filter id="ac" color-interpolation-filters="sRGB">
   <feGaussianBlur stdDeviation="2.3471688"/>
  </filter>
  <filter id="ad" color-interpolation-filters="sRGB">
   <feGaussianBlur stdDeviation="0.32874178"/>
  </filter>
  <filter id="ae" x="-.10546" y="-.20787" width="1.2109" height="1.4157" color-interpolation-filters="sRGB">
   <feGaussianBlur stdDeviation="6.8351198"/>
  </filter>
  <linearGradient id="af" x1="-127.28" x2="-32.614" y1="351.57" y2="351.57" gradientTransform="translate(251.43,103.57)" gradientUnits="userSpaceOnUse" xlink:href="#s"/>
  <linearGradient id="ag" x1="-131.24" x2="-9.6066" y1="456.88" y2="456.88" gradientTransform="translate(342.14,-5)" gradientUnits="userSpaceOnUse" xlink:href="#s"/>
  <linearGradient id="ah" x1="344.9" x2="459.24" y1="452.84" y2="452.84" gradientTransform="translate(0,-2.1429)" gradientUnits="userSpaceOnUse" xlink:href="#s"/>
  <radialGradient id="t" cx="162.86" cy="655.22" r="55.5" gradientUnits="userSpaceOnUse">
   <stop offset="0"/>
   <stop stop-color="#090909" offset=".5"/>
   <stop stop-color="#2a2121" offset="1"/>
  </radialGradient>
  <radialGradient id="r" cx="161.07" cy="637.72" r="40.857" gradientUnits="userSpaceOnUse" xlink:href="#k"/>
  <radialGradient id="y" cx="161.07" cy="637.72" r="40.857" gradientUnits="userSpaceOnUse">
   <stop stop-color="#bebebe" offset="0"/>
   <stop offset="1"/>
  </radialGradient>
  <radialGradient id="aa" cx="161.07" cy="637.72" r="43.104" gradientUnits="userSpaceOnUse">
   <stop offset="0"/>
   <stop stop-opacity="0" offset="1"/>
  </radialGradient>
  <linearGradient id="ai" x1="563.5" x2="564.14" y1="516.87" y2="500.7" gradientUnits="userSpaceOnUse">
   <stop stop-color="#478545" offset="0"/>
   <stop stop-color="#497148" offset="1"/>
  </linearGradient>
  <radialGradient id="al" cx="452.3" cy="801.12" r="7.8236" gradientTransform="matrix(1,0,0,1.5204,0,-416.89)" gradientUnits="userSpaceOnUse" xlink:href="#k"/>
  <radialGradient id="am" cx="460.45" cy="807.93" r="2.1248" gradientTransform="matrix(1,0,0,3.8446,0,-2298.2)" gradientUnits="userSpaceOnUse" xlink:href="#k"/>
  <radialGradient id="an" cx="460.96" cy="805.03" r="5.1903" gradientTransform="matrix(1 0 0 .9699 0 24.234)" gradientUnits="userSpaceOnUse" xlink:href="#k"/>
  <linearGradient id="aj" x1="552.86" x2="548.57" y1="478.37" y2="507.65" gradientUnits="userSpaceOnUse">
   <stop stop-color="#ccc" stop-opacity=".51773" offset="0"/>
   <stop stop-color="#ccc" stop-opacity="0" offset="1"/>
  </linearGradient>
  <radialGradient id="z" cx="156.79" cy="636.29" r="18.714" gradientUnits="userSpaceOnUse">
   <stop stop-color="#b3b3b3" offset="0"/>
   <stop stop-color="#b3b3b3" stop-opacity="0" offset="1"/>
  </radialGradient>
  <linearGradient id="ak" x1="34.5" x2="671.22" y1="499.86" y2="499.86" gradientUnits="userSpaceOnUse">
   <stop stop-color="#468545" offset="0"/>
   <stop stop-color="#468744" offset=".5"/>
   <stop stop-color="#4a9148" offset="1"/>
  </linearGradient>
 </defs>
 <g transform="translate(-15.929 -379.72)">
  <path d="m48.992 566.48-5.9996-2.612c15.962-30.282 30.897-57.824 51.543-85.297l3.8927 4.3978z" fill="#478545" stroke="#000" stroke-width="1px"/>
  <path d="m230.89 614.86 2.1428 3.9286h25.357l-0.17857 2.5 87.5 2.8572 0.17857-2.8572h5.8928v2.8572l81.429-0.35715 0.35714-3.75h4.6429l0.71428 4.2857 6.4286 0.35714 0.71429 3.3929 43.75-3.75 0.71428-4.1071 177.68-15c1.8915-14.775-3.6466-27.428-12.38-39.167-22.978-33.501-41.785-35.709-70.313-26.621-54.508 17.777-6.7366 45.433-72.168 54.313-65.432 8.8798-244.07-1.017-277.1 1.6538z" stroke="#000" stroke-width="1px"/>
  <path d="m165 427.36c-39.543 9.5004-51.865 42.484-38.571 72.862l338.57 1.43c-21.799-45.632-43.593-78.706-59.286-89.29-80.238 5-146.8-41.29-240.71 15zm178.24-11.545c45.006-0.6997 78.387 24.805 87.688 57.875 1.4884 5.0764-5.578 8.9688-7.5312 8.9688h-77.594c-6.2463 0.43784-8.0332-3.0609-9.25-7.0938v-52.75c0.0688-4.1932 3.471-6.673 6.6875-7zm-27.5 0.40625c3.7026 0.80118 6.5588 2.6226 7.4375 6.8125l1.2812 53.156c-0.93642 5.7078-3.0614 6.0366-5.0938 6.8125l-89.719 1.25c-6.276-4.9769-8.8567-6.1551-1.0625-22.938 7.7942-16.782 25.043-44.163 87.156-45.094zm-98.281 3.4062c10.94 2.6311 11.371 9.8755 11.25 14.719-11.45 12.912-15.176 28.024-19.75 42.688-1.7009 4.7906-3.3929 4.6482-5.0938 6.375-10.991 1.8942-28.734 2.0886-43.781 2.9688-5.0598-0.52954-9.561-4.0322-9.375-9.3438 0.9234-26.372 38.24-52.944 66.75-57.406z" fill="#803300" opacity=".41577" stroke="#000" stroke-linecap="round" stroke-linejoin="round" stroke-width="2"/>
  <path d="m150 492.36-5-15.714c3.6911-8.607 20.305-21.215 32.857-19.286 16.495 2.5359 33.571 37.143 33.571 37.143l-63.571 8.5714z" fill="#483737" stroke="#000" stroke-width="1px"/>
  <path d="m149.29 473.08c18.131 8.5714 27.307 17.143 32.143 25.714" fill="none" stroke="#000" stroke-width="1px"/>
  <ellipse transform="matrix(.73912 -.67357 .67718 .73582 0 0)" cx="-24.822" cy="629.9" rx="24.253" ry="5.6327" fill="none" stroke="#000" stroke-linecap="round" stroke-linejoin="round" stroke-width="3.335"/>
  <path d="m301.25 385.22c-46.51 5e-3 -99.142 9.0438-146.97 35-56.937 48-88.432 112.38-119.28 177.16l198.56 17.12 266.44-0.72 1.4375-7.125 42.219-0.71875-7.5938-0.375 7.875-18.188 22.125-27.5 13.94-15.71 43.94-7.16 24.625 16.062 21.312 44-7.0312-56.844c-27.45-63.79-106.1-63.55-185.69-62.16l-47.16-62.12c-12.76-13.75-65.01-30.73-128.75-30.72zm21.25 26.188c4.398 0.95165 7.8 3.1169 8.8438 8.0938l1.5 63.125c-1.1123 6.7798-3.6484 7.1721-6.0625 8.0938l-106.56 1.5c-7.4547-5.9116-10.539-7.3157-1.2812-27.25 9.258-19.934 29.783-52.457 103.56-53.562zm30.812 0.53125c53.458-0.83111 93.077 29.469 104.12 68.75 1.768 6.0298-6.6174 10.656-8.9375 10.656h-92.156c-7.4194 0.52007-9.5547-3.6785-11-8.4688v-62.625c0.0817-4.9808 4.1481-7.9241 7.9688-8.3125zm-148.75 3.0312c12.995 3.1253 13.487 11.747 13.344 17.5-13.6 15.337-18.005 33.27-23.438 50.688-2.0203 5.6902-4.0422 5.5114-6.0625 7.5625-13.055 2.25-34.158 2.4858-52.031 3.5312-6.0101-0.629-11.346-4.7846-11.125-11.094 1.0968-31.324 45.448-62.887 79.312-68.188zm465.88 186.47-0.25 2.3438h0.53125l-0.28125-2.3438z" fill="url(#ak)" stroke="#000" stroke-width="1px"/>
  <path d="m502.14 615.93 40.714-25.714-21.429 51.429c-1.6484 3.9562-5.473 7.7718-10.714 7.1428l-17.857-2.1428c-1.1648-2.5933-1.1591-4.0163-1.4286-5.7143 3.1668-8.738 5.7603-18.049 10.714-25z" stroke="#000" stroke-width="1px"/>
  <path d="m194.35 483.68c-2.0203 5.6902-4.0406 5.525-6.0609 7.5762-13.055 2.25-34.15 2.4901-52.023 3.5355-6.0101-0.629-11.333-4.8025-11.112-11.112 1.0968-31.324 45.432-62.885 79.297-68.185 12.995 3.1253 13.485 11.751 13.341 17.504-13.6 15.337-18.01 33.264-23.443 50.681z" fill="url(#af)" stroke="#000" stroke-width="2"/>
  <path d="m218.9 492.28 106.57-1.5152c2.4141-0.92165 4.9486-1.3014 6.0609-8.0812l-1.5152-63.135c-1.0437-4.9768-4.4408-7.1296-8.8388-8.0812-73.779 1.1057-94.283 33.604-103.54 53.538-9.258 19.934-6.192 21.362 1.2627 27.274z" fill="url(#ag)" stroke="#000" stroke-width="2"/>
  <path d="m345.9 481.93c1.4453 4.7902 3.566 8.9801 10.985 8.46h92.176c2.3201 0 10.706-4.6455 8.9382-10.675-11.048-39.281-50.687-69.579-104.15-68.748-3.8206 0.38837-7.8733 3.353-7.955 8.3338z" fill="url(#ah)" stroke="#ccc" stroke-width="2"/>
  <path d="m207.14 616.29 51.071 2.5" fill="none" stroke="#000" stroke-width="1px"/>
  <g stroke="#000" stroke-width="1px">
   <path d="m688.67 567.74c1.8974 13.461-0.93446 24.82-5.0508 35.608l-1.5152-24.749z"/>
   <path d="m675.54 602.84-1.7678 10.607c3.4528-1.4239 8.0634 0.92115 10.859-3.7881l-0.75762-6.8185s1.5873-0.95422 1.7678-1.7678c0.2134-0.96191-1.0102-2.7779-1.0102-2.7779l4.0406-31.315c-1.4604-2.4666-2.4346-5.9058-5.8084-4.5457l-11.617 25.506c0.23492 6.1627-0.43757 13.233 4.2931 14.9z" fill="#e6e6e6"/>
   <path d="m673.01 593c6.7235 0.40256 9.4943 1.7933 10.859 3.5355" fill="none"/>
   <path d="m676.8 603.35c2.1887 0.50507 4.3773 0.33672 6.566-0.50508" fill="none"/>
  </g>
  <path d="m501.79 615.98c4.5201-1.0131 10.438 0.39253 15.657-3.283 31.023-23.48 45.344-55.704 62.377-64.65 45.271-23.776 72.801 5.4576 87.126 56.063 1.9228 1.0611 3.6977 1.7524 4.2932-0.50508 1.2785-9.1506 1.9036-18.464 0.50507-28.284-27.95-73.907-107.65-64.769-131.07-13.637-10.299 22.484-43.411 55.309-38.891 54.296z" fill="#478545" stroke="#000" stroke-width="1px"/>
  <path d="m311.47 385.62c-8.7054-0.11143-18.649-0.75499-27.634-0.49554-35.869 1.0357-74.783 3.5208-108.47 17.188-33.811 13.718-57.137 42.463-76.737 70.924l4.1875 3.25c22.299-28.97 43.147-55.391 75.589-68.554 32.568-13.213 70.924-15.75 106.66-16.781 35.659-1.0297 69.9 0.83916 95.688 6.0625 12.953 2.6237 23.93 5.6399 32.062 8.6562 8.1324 3.0164 13.459 6.3918 14.688 8.0625l6.067-4.5848c-2.8357-3.858-10.41-5.2934-18.911-8.4464-8.5009-3.153-19.684-6.2094-32.844-8.875-19.828-4.0163-44.227-6.072-70.344-6.4062z" color="#000000" fill="#2b1100" style="block-progression:tb;text-indent:0;text-transform:none"/>
  <g transform="translate(1.0102,-6.0609)" stroke-linecap="round" stroke-linejoin="round">
   <circle transform="translate(-7.1429,-25)" cx="162.86" cy="655.22" r="55" fill="url(#t)" stroke="#000"/>
   <circle transform="translate(-5.3571,-7.5)" cx="161.07" cy="637.72" r="40.357" fill="url(#r)" stroke="#000"/>
   <circle transform="matrix(.93444 0 0 .93444 5.2026 34.309)" cx="161.07" cy="637.72" r="40.357" fill="url(#r)" stroke="url(#y)"/>
   <circle transform="matrix(.8246 0 0 .8246 22.895 104.36)" cx="161.07" cy="637.72" r="40.357" fill="#b3b3b3" stroke="url(#aa)" stroke-width="5.4942"/>
   <circle transform="matrix(.60906 0 0 .60906 57.612 241.81)" cx="161.07" cy="637.72" r="40.357" fill="#b3b3b3" stroke="#ccc" stroke-width="3.3739"/>
   <circle transform="matrix(.56608 0 0 .56608 64.535 269.22)" cx="161.07" cy="637.72" r="40.357" fill="#b3b3b3" stroke="#fff" stroke-width="3.3739"/>
   <circle transform="translate(-1.0714,-6.0714)" cx="156.79" cy="636.29" r="18.214" fill="url(#z)" stroke="#000"/>
   <circle transform="matrix(.64246 0 0 .64246 -64.558 120.7)" cx="342.86" cy="793.08" r="1.4286" fill="#ccc" stroke="#e6e6e6" stroke-width="5.134"/>
  </g>
  <path d="m40 605.22c64.649 7.8801 127.96 10.424 190.71 10.714-13.38-136.41-153.35-114.6-190.71-10.71z" fill="#478545" stroke="#000" stroke-width="1px"/>
  <g transform="translate(-5.0508,8.0515)" stroke-linecap="round" stroke-linejoin="round">
   <circle transform="translate(438.57,-42.143)" cx="162.86" cy="655.22" r="55" fill="url(#t)" stroke="#000"/>
   <circle transform="translate(440.36,-24.643)" cx="161.07" cy="637.72" r="40.357" fill="url(#r)" stroke="#000"/>
   <circle transform="matrix(.93444 0 0 .93444 450.92 17.166)" cx="161.07" cy="637.72" r="40.357" fill="url(#r)" stroke="url(#y)"/>
   <circle transform="matrix(.8246 0 0 .8246 468.61 87.216)" cx="161.07" cy="637.72" r="40.357" fill="#b3b3b3" stroke="url(#aa)" stroke-width="5.4942"/>
   <circle transform="matrix(.60906 0 0 .60906 503.33 224.67)" cx="161.07" cy="637.72" r="40.357" fill="#b3b3b3" stroke="#ccc" stroke-width="3.3739"/>
   <circle transform="matrix(.56608 0 0 .56608 510.25 252.08)" cx="161.07" cy="637.72" r="40.357" fill="#b3b3b3" stroke="#fff" stroke-width="3.3739"/>
   <circle transform="translate(444.64,-23.214)" cx="156.79" cy="636.29" r="18.214" fill="url(#z)" stroke="#000"/>
   <circle transform="matrix(.64246 0 0 .64246 381.16 103.56)" cx="342.86" cy="793.08" r="1.4286" fill="#ccc" stroke="#e6e6e6" stroke-width="5.134"/>
  </g>
  <ellipse cx="669.29" cy="524.86" rx="5.7143" ry="13.214" fill="#fff" stroke="#000" stroke-linecap="round" stroke-linejoin="round"/>
  <path d="m654.64 534.15-3.2143 8.2143 4.6429 3.9286 4.2857-9.6428z" fill="#1a1a1a" stroke="#000" stroke-width="1px"/>
  <path d="m668.12 511.78c-13.621 0-24.656 5.7509-24.656 12.835 0 7.0838 11.036 12.835 24.656 12.835 0.99343 0 1.976-0.039 2.9375-0.10101l0.21875-0.43793c-0.0208 4.4e-4 -0.0417-4.1e-4 -0.0625 0 1.3278-3.5206 2.0938-7.4625 2.0938-11.622 0-4.9002-1.0405-9.4768-2.8438-13.441-0.77763-0.0384-1.5468-0.0674-2.3438-0.0674z" fill="#478545" stroke="#000" stroke-linecap="round" stroke-linejoin="round" stroke-width=".88943"/>
  <path d="m660 510.93 0.71429 2.5 9.29-1.78z" fill="#fff" stroke="#000" stroke-width="1px"/>
  <path d="m631.79 527.72c-26.41-18.73-79.02-23.42-131.43-28.21" fill="none" stroke="#000" stroke-width="1px"/>
  <path d="m500.36 499.68c2.2099 1.5302-0.0166 1.6655 1.9784 2.2881s8.7472 0.66108 9.8073 0.92623c0 0 12.452 16.788 15 16.964 21.605 1.4964 85.85-2.049 98.214 5.3572l10 5c-12.74-14-76.06-32.95-135-30.54z" fill="url(#ai)" stroke="#000" stroke-width="1px"/>
  <path d="m233.85 601.83-28.79-93.43c-3.43-65.03 35.28-102.99 131.83-105.06l1.5152 201.02z" fill="none" stroke="#000" stroke-width="1px"/>
  <path d="m336.38 403.34 3.0304 202.03 154.05-2.0203v-81.317c-2.4221-8.8551-4.4793-17.619-12.122-27.779-51.912-79.902-81.681-92.318-144.96-90.914z" fill="none" stroke="#000" stroke-width="1px"/>
  <path d="m232.84 602.34-3.0305 13.637 272.74-1.5152-3.0305-8.5863-8.0812-3.0305z" fill="#b3b3b3" stroke="#000" stroke-width="1px"/>
  <path d="m230.82 610.42 270.72-1.0102v6.566l-271.73-0.50507z" fill="#666" stroke="#000" stroke-width="1px"/>
  <path d="m493.46 490.72 48.487 68.69" fill="none" stroke="#000" stroke-width="1px"/>
  <path d="m38.386 596.28c26.008-45.54 49.417-92.27 160.61-98.49l138.39 0.50507 142.94-1.0102" fill="none" stroke="#000" stroke-width="1px"/>
  <g fill="#ccc" stroke="#000" stroke-linecap="round" stroke-linejoin="round">
   <circle transform="translate(-1.0102,-1.5152)" cx="220.47" cy="508.4" r="4.7982"/>
   <ellipse transform="translate(.50508 -.50508)" cx="214.4" cy="507.38" rx="7.0711" ry="1.2627"/>
  </g>
  <g fill="#ccc" stroke="#000" stroke-linecap="round" stroke-linejoin="round">
   <circle transform="translate(132.84,-1.2627)" cx="220.47" cy="508.4" r="4.7982"/>
   <ellipse transform="translate(137.89)" cx="214.4" cy="507.38" rx="7.0711" ry="1.2627"/>
   <circle cx="354.56" cy="507.13" r="1.7678"/>
  </g>
  <path d="m92.934 476.58 6.0609 6.0609 4.2932-6.3134-6.3135-3.283c-1.6069-0.12177-3.1002 0.32497-4.0406 3.5355z" fill="#ccc" stroke="#000" stroke-width="1px"/>
  <path d="m49.497 566.23-9.849 0.25254 0.75761 21.213z" fill="#fff" stroke="#000" stroke-width="1px"/>
  <path d="m38.26 566.23-6.6923 0.25254v10.859l6.6923-0.50508z" fill="#f00" stroke="#000" stroke-width="1px"/>
  <path d="m40.714 600.22-1.4286 18.571-17.143-2.8571-0.71429-9.2857 1.4286-8.5714-0.71429-5c-0.44366-3.1056 11.757-13.277 17.612-10.837l-9.755 9.42z" fill="#ccc" stroke="#000" stroke-width="1px"/>
  <path d="m31.567 577.09v5.8084l6.6923 0.75761 0.88388-7.3236z" fill="#f60" stroke="#000" stroke-width="1px"/>
  <rect x="37.628" y="566.48" width="5.0508" height="16.92" stroke="#000" stroke-linecap="round" stroke-linejoin="round"/>
  <path d="m345.71 447.36 92.143 0.71429" fill="none" stroke="#e6e6e6" stroke-width="1px"/>
  <path d="m22.9 598.79 13.528 3.5714-1.428 11.43-12.857-2.14c-0.69056-4.0499-1.1977-8.1457 0.75761-12.857z" fill="#1a1a1a" stroke="#000" stroke-width="1px"/>
  <g transform="translate(8.0812,-325.27)" stroke="#000">
   <path d="m444.97 799.82c2.3601 7.4338 7.3322 10.95 13.489 12.688l1.1581-11.678c-2.0398-8.617-5.7587-8.5751-12.627-11.112-1.1716 1.3745-1.8007 4.9192-2.0203 10.102z" fill="url(#al)" stroke-width="1px"/>
   <path d="m458.75 801.32c0.87783-2.0934 2.2089-0.79237 3.3962 0v12.802c-1.462 2.8472-2.3368 1.111-3.1349 0z" fill="url(#am)" stroke-linecap="round" stroke-linejoin="round" stroke-width=".85342"/>
   <path d="m457.06 800.5c-1.173 0.6529-0.82612 1.6098-0.34375 2.5938l5.4062 0.75-2.75 4c0.45627 1.277 1.0331 2.1924 2.1562 1.4688l3.9375-5.7188c0.47766-0.72897-0.0432-1.8785-0.90625-2z" color="#000000" fill="url(#an)" style="block-progression:tb;text-indent:0;text-transform:none"/>
  </g>
  <path d="m482.86 478.43 10.357 11.786c53.313 3.5064 105.82 11.421 155.36 35.714l-1.4286-11.429c-38.25-36.79-96.69-35.81-164.29-36.07z" fill="url(#aj)" filter="url(#ab)" opacity=".55556"/>
  <path d="m611.53 525.56c-46.079-7.6101-89.34 70.795-99.454 86.771 32.348-27.4 48.886-62.783 77.204-74.146 12.048-6.2641 23.468-7.9261 35.031-3.0312s23.61 16.761 35.562 38.812c0.75932 1.7045 3.0777 2.4948 4.72 1.6092 1.6424-0.88568 2.2557-3.257 1.2487-4.8279-12.374-22.827-25.258-36.111-38.875-41.875-5.1062-2.1615-10.287-3.2115-15.438-3.3125z" color="#000000" fill="#fff" filter="url(#ac)" opacity=".20072" style="block-progression:tb;text-indent:0;text-transform:none"/>
  <path d="m672.5 517.36c-10.167-3.956-18.967 3.025-28.214 6.4286 9.79 4.3795 21.87 10.438 28.929 5.7143z" fill="#fff" filter="url(#ad)" opacity=".086022"/>
  <path d="m67.022 595.96c29.809-13.17 51.639-53.473 98.88-39.032 22.267 5.3966 27.365 62.381 46.838 50.307 18.119-11.234-7.3469-44.905-22.552-59.848-12.262-12.051-31.391-17.967-48.573-17.347-18.629 0.67141-36.486 11.074-51.175 22.552-11.529 9.0087-24.855 20.205-26.888 34.695-0.43268 3.0838 0.46392 7.8592 3.4695 8.6737z" fill="#fff" filter="url(#ae)" opacity=".078853"/>
  <ellipse transform="matrix(.83331 -.5528 .57992 .81468 0 0)" cx="-243.69" cy="504.8" rx="6.4365" ry="2.5038" fill="#b6b6b6"/>
  <ellipse transform="matrix(.76149 -.64818 .72812 .68545 0 0)" cx="-337.42" cy="470.92" rx="5.9055" ry="2.2301"/>
  <path d="m84.019 543.21 4.1524-3.2988c0.43818-0.34811 1.0712-0.27563 1.4193 0.16251l2.8276 3.5592c0.3481 0.43818 0.21708 1.0082-0.16259 1.4194-1.1559 1.2517-1.6863 2.9205-4.1524 3.2988-0.55316 0.0848-1.0712 0.27562-1.4194-0.16259l-2.8276-3.5592c-0.3481-0.43818-0.27556-1.0711 0.16266-1.4193z"/>
 </g>
</svg>
