<?xml version="1.0" encoding="UTF-8"?>
<svg enable-background="new 0 0 500 500" version="1.1" viewBox="0 0 500 500" xml:space="preserve" xmlns="http://www.w3.org/2000/svg">
	<path d="m115.4 191.2c3 0.6-4.9 3.7 8.4 28.4 0.4 0.7 0.2 1.6 0.2 2.4 0.3 15.4-8.3 27.9-8.3 27.9 0 4.8 10.8 31.7 10.8 31.7 10.2 2.6 14.7-0.8 14.7-0.8 2.8-9.3-7.9-7.7-7.9-7.7-3.6-4.2-4.2-11.3-3.7-14.3 0.4-3 10.9-10.9 10.9-10.9 12.9 16 29.3 25.4 29.3 25.4 11.2 2.5 6.5-6.5 6.5-6.5-11.8-8.1-17.8-14.3-19.2-18.8-1.4-4.6 13.8-31.1 13.8-31.1s42.3 2 40 6.7 1.4 29.3 1.4 29.3c-2.4 3.9-5.3 4-10.1 10.2s4 14.4 5.5 11.1c1.7-3.4 11.8-15.7 14.1-17.7 2.4-2 5.8-22.3 5.8-22.3 20.7 52.7 28.8 50.9 28.8 50.9s9.7 0.4 11.6-0.7-0.6-9.2-3.1-8.7-4.6-0.6-4.6-0.6c-9.8-11.3-9.7-39.4-9.7-39.4 3-11.8 16.3-26.6 16.3-26.6 0.5-0.7 0.6-1.7 0.5-2.6-0.1-2.2 0.1-4.5 0.6-6.7 1.8-7.7 6.1-13.4 11.7-15.1 1.4-0.4 3.6-0.8 6.2-0.3 3.6 2.4 7.7 1.8 7.7 1.8 6.2-4.3 7.2-9.2 7.2-9.2 2.8-2.5 1.5-4.9 1.5-4.9-6.8-6-3-5.9-7.1-12.3-4.2-6.4-10.5-8.1-10.5-8.1 3.6-13.7 3.3-12.5 1.5-13.7s-14.6 11.6-14.6 11.6c-8 2.1-13.4 8-13.4 8-2.8 4.5-6.8 7.3-10.9 9-7.2 3.1-15.3 3.1-22.6 0.5-7.8-2.8-12.9-5.6-16.4-6.5-18.4-5.3-55.1-0.9-58.1-0.9-18.4 2.9-30.5 12.9-30.5 12.9s-42.2 1.1-57.8-6.9c-4.8-2.5-5.8-9-1.8-12.7 5.2-4.8 15.6-6 29.2-7.1 7.1-0.6 6.5-5.3 0.4-6.5-12.5-2.4-42.8 3.8-43.5 17.6-0.2 3.7-6.2 18.8 69.2 34.2z"/>
</svg>
