<?xml version="1.0" encoding="UTF-8"?>
<svg viewBox="0 0 128 128" xmlns="http://www.w3.org/2000/svg">
 <defs>
  <linearGradient id="n" x1="-1.9032" x2=".70863" y1="-.26174" y2=".59046">
   <stop stop-color="#fff" offset="0"/>
   <stop stop-color="#fff" stop-opacity="0" offset="1"/>
  </linearGradient>
  <linearGradient id="j" x1=".46895" x2=".46868" y1=".93204" y2="-.063107">
   <stop offset="0"/>
   <stop stop-color="#747474" offset="1"/>
  </linearGradient>
  <linearGradient id="l" x1=".5" x2=".61421" y1="1.009" y2="-.067449">
   <stop stop-color="#d49c56" offset="0"/>
   <stop stop-color="#d49c56" stop-opacity="0" offset="1"/>
  </linearGradient>
  <linearGradient id="m" x1=".32421" x2="1.0091" y1=".8782" y2=".25687">
   <stop stop-color="#9f5f09" offset="0"/>
   <stop stop-color="#9f5f09" stop-opacity="0" offset="1"/>
  </linearGradient>
  <linearGradient id="k" x1=".5" x2=".45108" y1=".20425" y2=".70333">
   <stop stop-color="#d49c56" offset="0"/>
   <stop stop-color="#d49c56" stop-opacity=".258" offset="1"/>
  </linearGradient>
  <linearGradient id="i" x1="1.1447" x2=".30422" y1="-.10789" y2=".99652">
   <stop stop-color="#da8410" offset="0"/>
   <stop stop-color="#c97402" stop-opacity="0" offset="1"/>
  </linearGradient>
  <radialGradient id="o" cx="-164.86" cy="72.644" r="15.009" gradientTransform="matrix(.1038 .081452 -.21402 .27274 -132.2 63.745)" gradientUnits="userSpaceOnUse">
   <stop stop-color="#ffeed6" offset="0"/>
   <stop stop-color="#ffcd8b" offset="1"/>
  </radialGradient>
  <radialGradient id="p" cx="-165.24" cy="33.695" r="21.607" gradientTransform="matrix(.7193 -.017199 .035132 1.4693 -47.567 -19.6)" gradientUnits="userSpaceOnUse">
   <stop stop-color="#ffeed6" offset="0"/>
   <stop stop-color="#ffcd8b" offset="1"/>
  </radialGradient>
 </defs>
 <g fill-rule="evenodd">
  <path d="m7.7305 64.882c8.5134 0.081299 18.3-1.8734 20.252-10.268 1.9076-8.2015 0.91294-50.654 31.15-51.645 29.016-0.95116 36.592 23.32 39.086 36.611 8.0163 42.706-2.5234 71.462-63.259 54.153-6.888-3.9768-11.022-4.164-15.705-10.479 4.1206 0.11259 6.2768 0.38872 6.8952-3.6722-5.4865 0.22398-10.855-0.27739-12.948-9.8053 10.002 1.3822 14.595-2.9453 18.862-9.5029-5.0646 7.9568-11.028 12.421-24.333 4.6074z" fill="#f9f986"/>
  <path d="m28.556 57.189c4.4208-5.9145 5.7857-13.277 6.9232-21.94 3.06 8.454 3.2996 16.882-2.2399 24.18" fill="url(#i)"/>
  <path d="m3.6013 118.62c2.7927-7.7114 4.0292-18.026 13.643-22.806l44.593-13.541 46.574 12.853c8.1954 2.9422 12.069 14.888 15.987 23.923-2.5522 1.8322-4.752 4.5456-7.7871 5.1707h-105.68c-3.4319-1.2735-5.1702-3.5631-7.3304-5.5996z" fill="url(#j)" stroke="#000"/>
  <path d="m48.704 72.396c0.23771 5.7693 0.87025 11.094-1.8326 15.984l6.5159 36.041 14.966-0.2036 11.606-38.383-1.0181-16.493-30.238 3.0543z" fill="url(#o)" stroke="url(#k)"/>
  <path d="m38.111 41.413c0.58197 9.1189 0.8372 18.238 2.8797 27.357 0 0 9.2868 10.442 14.47 12.742 5.1835 2.301 6.6343 1.989 11.519-0.071983 4.8843-2.061 16.198-12.095 16.198-12.095 4.8626-19.716 6.5261-38.38-15.118-49.386l-15.694 23.325-0.432-9.0709-4.0315 6.9112c-2.7285-3.3124-7.9646-2.2117-9.7908 0.28796z" fill="url(#p)" stroke="url(#l)"/>
  <path d="m93.104 63.298c-4.1127 9.7071-15.214 13.559-25.758 11.81 10.214 8.0444 25.42 4.274 29.016-9.5702" fill="url(#m)"/>
  <path d="m38.059 41.461c0.96208 8.972 1.4557 17.788 3.4799 27.114 5.1577 5.3491 15.701 17.02 21.957 13.462 3.9872-0.90865 5.1187-2.2252 7.4088-3.3764-13.766 4.0898-19.126-3.1803-26.222-11.508l-4.6841-27.223-1.9402 1.5308z" fill="url(#n)"/>
  <g fill="none" stroke="#000">
   <path d="m79.7 86.665l-11.25 37.721"/>
   <path d="m46.29 86.86l6.8877 37.627"/>
  </g>
 </g>
</svg>
